<svg id="Layer_1" data-name="Layer 1" xmlns="http://www.w3.org/2000/svg" viewBox="0 0 266.89 266.89"><defs><style>.cls-1{fill:#fff;}</style></defs><title>fb</title><path id="White" class="cls-1" d="M676.38,205.22H438.95a14.73,14.73,0,0,0-14.73,14.73V457.38a14.73,14.73,0,0,0,14.73,14.73H566.78V368.76H532V328.48h34.78V298.77c0-34.47,21.05-53.24,51.81-53.24a285.37,285.37,0,0,1,31.08,1.59v36H628.33c-16.72,0-20,7.95-20,19.61v25.72h39.89l-5.19,40.28H608.37V472.11h68a14.73,14.73,0,0,0,14.73-14.73V219.95A14.73,14.73,0,0,0,676.38,205.22Z" transform="translate(-424.22 -205.22)"/></svg>